<?xml version="1.0" standalone="no"?>
<!DOCTYPE svg PUBLIC "-//W3C//DTD SVG 20010904//EN"
 "http://www.w3.org/TR/2001/REC-SVG-20010904/DTD/svg10.dtd">
<svg version="1.0" xmlns="http://www.w3.org/2000/svg"
 width="918.000000pt" height="918.000000pt" viewBox="0 0 918.000000 918.000000"
 preserveAspectRatio="xMidYMid meet">
<metadata>
Created by potrace 1.11, written by Peter Selinger 2001-2013
</metadata>
<g transform="translate(0.000000,918.000000) scale(0.100000,-0.100000)"
fill="#000000" stroke="none">
<path d="M900 8485 c-6 -7 -24 -16 -39 -20 -39 -8 -75 -50 -99 -115 l-20 -55
-55 -2 c-30 -1 -69 -9 -86 -18 -72 -37 -64 -135 17 -208 20 -19 20 -19 1 -52
-11 -18 -31 -36 -44 -39 -34 -9 -43 -45 -16 -67 11 -9 21 -24 21 -32 0 -22 32
-58 55 -61 21 -4 69 17 96 40 13 12 17 8 33 -37 22 -61 53 -84 100 -75 52 10
94 69 108 151 3 17 10 19 48 16 25 -1 49 -9 55 -18 23 -31 95 -12 95 24 0 8 7
21 15 29 28 28 19 88 -22 141 -20 26 -43 53 -51 59 -13 10 -11 16 12 47 68 90
18 173 -92 152 -20 -4 -43 -11 -49 -17 -10 -8 -13 -5 -13 11 0 11 0 22 1 24 0
1 -4 13 -9 27 -7 18 -6 28 3 37 12 11 9 62 -4 64 -3 0 -16 2 -27 5 -12 2 -27
-3 -34 -11z m-6 -51 c3 -8 12 -14 20 -14 9 0 18 -12 22 -27 3 -16 10 -42 14
-60 5 -18 5 -32 2 -30 -4 1 -19 -7 -34 -17 -15 -10 -31 -15 -36 -12 -4 2 -30
7 -57 11 -27 3 -51 8 -53 10 -8 8 29 95 53 123 25 30 60 39 69 16z m209 -115
c30 -16 36 -28 31 -57 -6 -32 -41 -82 -58 -82 -8 0 -19 7 -26 15 -7 8 -18 15
-25 15 -26 0 -61 66 -46 86 21 29 88 42 124 23z m-368 -89 c1 -63 -8 -93 -39
-123 -14 -14 -26 -23 -26 -19 0 4 -4 1 -9 -7 -17 -26 -91 65 -91 113 0 49 56
83 134 81 30 -1 31 -3 31 -45z m96 36 c18 -1 34 -7 35 -12 3 -10 -90 -84 -104
-84 -5 0 -8 15 -6 33 7 59 14 77 28 71 8 -3 29 -7 47 -8z m115 -13 c-10 -10
-19 5 -10 18 6 11 8 11 12 0 2 -7 1 -15 -2 -18z m16 -42 c2 -9 4 -46 3 -82 0
-62 -3 -68 -33 -94 -81 -68 -73 -64 -112 -47 -61 28 -69 39 -67 94 2 50 3 51
76 108 68 53 76 56 102 47 15 -6 29 -18 31 -26z m97 -48 c5 -4 -60 -73 -69
-73 -4 0 -5 105 -1 118 1 3 49 -28 70 -45z m75 -74 c25 -28 46 -56 47 -63 0
-6 2 -19 4 -29 5 -26 -23 -51 -41 -36 -17 14 -64 -2 -64 -21 0 -7 -19 -10 -51
-8 l-50 3 4 58 c4 53 8 62 48 103 24 24 47 44 51 44 3 0 27 -23 52 -51z m-400
-23 c1 -38 -4 -42 -35 -26 -24 13 -24 21 2 49 25 27 30 23 33 -23z m7 -107 c1
-21 2 -45 3 -51 1 -16 -41 -53 -71 -62 -12 -4 -32 -4 -45 -1 -29 7 -32 43 -6
72 12 13 14 23 8 33 -13 20 -13 20 10 57 l20 33 40 -21 c36 -19 40 -25 41 -60z
m224 27 c0 -41 -2 -43 -24 -39 -48 8 -56 19 -31 39 12 11 28 24 34 31 18 20
21 15 21 -31z m-160 -12 l38 -15 -36 -25 c-20 -13 -38 -24 -40 -24 -2 0 -4 18
-5 40 -1 22 0 40 2 40 2 0 20 -7 41 -16z m118 -41 c31 -6 35 -28 15 -84 -12
-38 -63 -89 -88 -89 -22 0 -60 28 -60 46 0 8 -4 14 -8 14 -4 0 -8 14 -7 30 0
24 10 38 44 66 27 21 51 32 60 29 9 -4 28 -9 44 -12z"/>
<path d="M854 8150 c-29 -11 -27 -60 3 -71 31 -11 58 11 50 43 -8 30 -24 38
-53 28z"/>
<path d="M8194 8108 c-22 -10 -44 -47 -44 -73 0 -24 44 -65 76 -71 46 -9 87
30 87 81 0 62 -58 93 -119 63z m33 -32 c-9 -7 -17 -21 -17 -31 0 -17 1 -17 18
-2 10 10 24 17 30 17 6 0 9 7 6 15 -8 20 13 19 24 -1 13 -24 2 -63 -22 -76
-40 -23 -83 -1 -92 46 -3 19 3 27 28 39 36 17 53 13 25 -7z"/>
<path d="M8512 8061 c-20 -12 -43 -62 -44 -93 -2 -64 67 -105 132 -78 29 12
50 52 50 94 0 38 -42 78 -86 82 -21 2 -45 0 -52 -5z m91 -35 c9 -10 17 -22 18
-25 0 -3 2 -15 4 -26 2 -10 -1 -25 -7 -32 -6 -7 -7 -13 -2 -13 5 0 -3 -7 -18
-14 -28 -15 -73 -12 -94 5 -31 25 -13 114 24 121 35 7 58 2 75 -16z"/>
<path d="M8533 8013 c-23 -9 -14 -20 12 -15 14 2 25 8 25 13 0 10 -17 11 -37
2z"/>
<path d="M8294 7834 c-14 -8 -34 -14 -44 -14 -16 0 -69 -51 -71 -68 0 -4 -2
-20 -5 -37 -11 -79 36 -158 104 -172 52 -10 54 -10 87 0 98 31 145 133 102
219 -35 68 -116 101 -173 72z m105 -136 c12 -31 -20 -88 -48 -88 -15 0 -13 11
4 34 8 11 15 32 15 48 0 34 17 37 29 6z"/>
<path d="M350 7465 l0 -175 345 0 c351 0 366 -2 337 -35 -5 -6 -32 -68 -61
-140 -29 -71 -56 -137 -61 -146 -4 -8 -22 -51 -40 -94 -17 -44 -37 -93 -45
-110 -8 -16 -59 -138 -114 -270 -54 -132 -167 -402 -250 -600 l-151 -360 0
-172 0 -173 563 0 563 0 0 174 -1 175 -359 1 c-198 0 -361 2 -363 4 -3 2 75
198 112 281 7 17 37 86 65 155 53 129 72 174 96 224 8 16 14 36 14 46 0 9 4
20 9 25 5 6 104 238 220 517 l211 506 -1 171 0 170 -545 1 -544 0 0 -175z"/>
<path d="M1880 6415 l0 -1225 525 0 525 0 0 175 0 174 -326 0 c-180 0 -329 3
-333 6 -3 4 -6 166 -6 361 l0 354 262 0 c145 0 263 3 264 8 0 4 2 82 2 175 l2
167 -265 0 -266 0 1 340 0 340 332 0 333 0 0 175 0 175 -525 0 -525 0 0 -1225z"/>
<path d="M3378 7638 c0 -2 -2 -553 -3 -1225 l-1 -1223 173 0 173 0 0 872 c0
479 2 869 5 866 4 -4 119 -408 130 -458 4 -18 49 -184 70 -255 14 -50 106
-387 130 -480 8 -27 23 -84 35 -125 12 -41 23 -82 25 -90 12 -56 77 -289 85
-307 9 -23 12 -23 205 -23 l195 0 0 1225 0 1225 -170 0 -170 0 0 -87 c0 -49 0
-370 0 -715 0 -405 -4 -628 -10 -628 -6 0 -10 3 -11 8 0 4 -2 16 -3 27 -2 11
-29 115 -60 230 -32 116 -64 233 -71 260 -8 28 -35 127 -60 220 -66 239 -106
387 -111 405 -8 33 -52 196 -57 210 -3 8 -8 27 -11 43 l-6 27 -240 0 c-132 0
-241 -1 -242 -2z"/>
<path d="M5305 7630 c-100 -15 -118 -19 -170 -40 -11 -4 -36 -14 -55 -21 -58
-21 -164 -93 -218 -148 -55 -57 -109 -158 -128 -237 -14 -62 -11 -221 6 -289
16 -66 82 -200 123 -249 114 -139 277 -242 483 -305 55 -17 111 -33 124 -36
12 -2 37 -9 54 -14 17 -6 42 -12 56 -15 40 -7 140 -35 205 -56 l60 -20 -1
-152 c-2 -186 0 -173 -24 -175 -20 -2 -179 -48 -215 -63 -11 -4 -36 -14 -55
-21 -57 -21 -167 -91 -214 -137 -24 -23 -56 -67 -70 -97 -25 -51 -48 -146 -40
-170 1 -5 5 -26 7 -46 11 -95 114 -225 211 -269 96 -43 138 -46 150 -13 8 19
-2 53 -15 53 -20 0 -102 86 -125 132 -54 107 -12 207 116 274 30 16 59 30 65
31 148 40 199 52 204 47 3 -3 6 -32 7 -65 1 -66 -4 -72 -86 -102 -25 -9 -58
-22 -75 -28 -16 -7 -35 -13 -40 -14 -6 -2 -34 -13 -63 -25 -42 -18 -52 -27
-52 -46 0 -13 3 -25 8 -25 28 -6 744 -4 753 2 6 3 9 16 7 29 -2 17 -18 28 -68
47 -36 14 -74 29 -85 33 -11 5 -52 20 -90 35 l-71 26 1 82 1 81 80 24 c141 43
251 141 288 257 48 154 7 315 -110 425 -53 49 -152 114 -210 136 -24 9 -45 22
-45 28 -1 6 -2 50 -3 98 l-1 86 75 12 c100 16 98 16 155 35 129 44 255 137
294 218 12 24 21 49 21 55 0 9 -148 12 -615 12 -485 0 -615 -3 -615 -12 0 -25
58 -114 98 -150 64 -59 192 -123 284 -142 68 -15 86 -18 116 -21 18 -1 36 -6
40 -10 8 -8 10 -135 2 -135 -3 0 -30 7 -60 16 -30 8 -63 17 -72 19 -228 52
-428 138 -520 223 -52 48 -108 136 -115 182 -16 98 1 155 67 221 51 51 132 85
229 95 48 5 57 3 104 -29 53 -35 158 -80 212 -91 17 -4 41 -9 55 -12 57 -12
196 -1 214 16 5 5 14 7 20 4 22 -8 91 42 122 88 35 52 38 97 9 142 -16 24
-124 96 -145 96 -4 0 -10 4 -12 8 -12 30 -138 84 -221 96 -27 4 -59 10 -70 12
-38 9 -300 11 -352 4z m305 -74 c70 -7 77 -8 155 -26 48 -11 126 -50 153 -76
6 -7 33 -23 60 -36 52 -26 71 -44 72 -71 1 -63 -94 -110 -220 -110 -47 0 -96
3 -110 6 -68 14 -203 75 -220 99 -18 24 -121 37 -190 23 -46 -9 -150 -49 -150
-57 0 -4 -6 -8 -12 -8 -18 0 -72 -53 -106 -103 -87 -128 -57 -297 76 -434 111
-114 202 -155 632 -279 141 -41 273 -89 310 -113 14 -9 37 -23 52 -30 48 -24
126 -110 157 -172 27 -55 30 -69 28 -142 -3 -96 -27 -155 -87 -216 -42 -43
-122 -85 -185 -99 l-40 -9 1 66 c2 84 -1 77 34 91 49 20 96 75 109 124 9 37 8
54 -5 93 -24 72 -88 123 -229 184 -30 12 -204 66 -242 74 -239 50 -485 141
-588 219 -68 50 -172 166 -203 224 -55 104 -79 257 -58 377 12 71 65 169 119
223 154 151 375 208 687 178z m432 -1471 c28 -33 23 -91 -11 -126 -16 -16 -33
-29 -38 -29 -4 0 -7 39 -7 87 2 125 1 118 21 102 10 -8 26 -23 35 -34z m-196
-345 c-1 -32 -4 -61 -6 -63 -3 -2 -32 -9 -65 -16 -214 -45 -339 -117 -394
-227 -33 -65 -34 -108 -5 -202 13 -45 -21 -12 -45 43 -79 182 5 341 229 437
76 32 242 85 271 87 14 1 17 -9 15 -59z"/>
<path d="M5740 7483 c-31 -12 -52 -47 -46 -78 15 -75 110 -88 137 -18 22 58
-35 117 -91 96z"/>
<path d="M6590 6415 l0 -1225 190 0 c145 0 190 3 191 13 1 6 2 176 3 377 l1
365 54 100 c30 55 57 104 61 108 4 4 15 -14 25 -40 51 -136 217 -571 224 -588
14 -31 83 -209 86 -220 1 -5 6 -19 10 -30 4 -11 14 -35 21 -52 l13 -33 195 0
c108 0 196 2 196 5 0 5 -265 684 -285 730 -7 17 -38 93 -68 170 -30 77 -83
210 -117 296 l-61 157 119 243 c66 134 174 357 241 494 67 138 126 257 131
265 11 16 40 80 40 86 0 2 -86 4 -190 4 l-191 0 -65 -137 c-37 -76 -81 -169
-99 -208 -62 -132 -108 -230 -165 -350 -31 -66 -80 -170 -110 -232 -29 -62
-56 -110 -60 -108 -3 2 -6 236 -6 519 l1 516 -192 0 -193 0 0 -1225z"/>
<path d="M8468 7466 c-92 -49 -66 -157 41 -170 26 -3 39 3 65 28 36 37 43 74
21 117 -9 16 -17 29 -18 29 -1 0 -17 4 -34 9 -27 8 -41 5 -75 -13z m85 -21
c40 -16 28 -98 -18 -115 -45 -17 -108 26 -100 68 2 9 4 20 4 24 1 4 13 14 29
22 26 15 49 15 85 1z"/>
<path d="M8484 7415 c-4 -9 -3 -19 1 -23 4 -4 10 -1 12 6 4 10 8 10 20 0 13
-10 15 -9 12 7 -5 25 -37 32 -45 10z"/>
<path d="M8173 7327 c-13 -5 -37 -32 -54 -59 -26 -40 -31 -56 -26 -88 14 -109
169 -132 233 -35 33 50 23 129 -21 165 -29 24 -98 33 -132 17z m97 -32 c48
-25 61 -94 25 -141 -29 -38 -89 -53 -126 -32 -28 16 -54 48 -53 66 1 6 2 19 3
28 2 24 77 94 101 94 12 0 34 -7 50 -15z"/>
<path d="M8167 7245 c-9 -8 -14 -23 -12 -32 2 -10 4 -21 4 -25 1 -5 7 -8 15
-8 9 0 12 8 8 25 -2 14 1 32 8 40 16 20 -4 20 -23 0z"/>
<path d="M6151 7279 c-12 -36 -7 -49 17 -49 10 0 38 -19 63 -42 66 -63 95 -79
154 -85 47 -5 57 -2 89 22 44 34 46 48 5 33 -39 -14 -105 -5 -130 18 -19 17
-19 18 18 30 33 11 90 60 81 69 -2 2 -28 -5 -57 -15 -38 -12 -62 -15 -78 -9
-13 5 -23 7 -23 4 0 -2 -24 9 -54 25 -30 17 -59 30 -64 30 -6 0 -15 -14 -21
-31z"/>
<path d="M8237 7024 c-1 -1 -29 -5 -62 -8 -167 -16 -227 -44 -240 -113 -12
-67 49 -117 136 -111 l48 3 -4 -65 c-16 -253 5 -1127 30 -1265 31 -165 146
-278 275 -270 60 4 72 7 106 29 78 49 135 142 150 242 9 59 9 255 0 494 -6
172 -9 263 -21 646 l-6 191 25 -4 c31 -6 87 12 117 38 37 32 33 93 -8 130 -37
32 -78 45 -183 55 -70 7 -358 13 -363 8z m383 -57 c77 -10 110 -21 133 -45 15
-15 23 -32 19 -38 -12 -18 -69 -44 -99 -44 -73 0 -72 2 -68 -138 2 -70 7 -237
10 -372 4 -135 9 -272 11 -305 9 -137 10 -481 1 -538 -17 -116 -71 -200 -150
-233 -141 -58 -275 75 -292 289 -13 168 -25 617 -28 1029 l-2 258 -40 1 c-22
1 -43 1 -47 0 -4 0 -26 6 -48 15 -33 13 -40 21 -40 44 0 45 38 63 160 76 30 3
56 7 58 9 4 3 387 -4 422 -8z"/>
<path d="M8063 6909 c56 -33 384 -48 555 -26 84 10 98 34 16 27 -78 -7 -421
-5 -509 3 -57 5 -75 4 -62 -4z"/>
<path d="M8355 6727 c-115 -65 -4 -224 113 -161 43 23 62 64 52 111 -5 19 -10
36 -12 37 -57 43 -95 46 -153 13z m127 -27 c39 -48 -1 -120 -67 -120 -49 0
-80 30 -81 79 0 28 4 41 13 41 7 0 13 4 13 9 0 28 98 20 122 -9z"/>
<path d="M8241 6509 c-18 -17 -22 -28 -17 -52 7 -35 40 -67 64 -62 9 2 20 4
25 4 17 2 47 43 47 64 0 58 -75 87 -119 46z m63 -9 c31 -11 34 -30 6 -30 -11
0 -20 5 -20 11 0 5 -5 7 -10 4 -18 -11 10 -36 31 -30 14 5 17 2 13 -9 -9 -22
-29 -26 -53 -10 -23 17 -27 44 -9 62 14 14 11 14 42 2z"/>
<path d="M8277 6291 l-78 -14 5 -196 c3 -108 7 -212 10 -231 4 -38 18 -182 21
-215 12 -159 55 -268 120 -302 35 -19 87 -22 121 -8 104 43 145 172 138 435
-8 304 -20 468 -37 488 -42 51 -165 69 -300 43z m18 -60 c-3 -12 0 -21 10 -25
22 -8 10 -24 -17 -22 -28 1 -35 28 -13 50 22 21 28 20 20 -3z m77 -9 c6 -22
-12 -50 -28 -45 -7 2 -10 13 -7 23 4 14 0 20 -11 20 -10 0 -14 5 -11 10 11 17
52 11 57 -8z m-57 -62 c3 -5 1 -10 -4 -10 -6 0 -11 -11 -11 -25 0 -18 -4 -23
-15 -19 -18 7 -20 35 -3 52 15 15 25 15 33 2z m145 -631 c0 -5 4 -7 10 -4 16
10 50 -14 50 -35 0 -22 -15 -27 -26 -9 -4 8 -9 7 -15 -2 -8 -12 -11 -11 -19 1
-7 12 -12 12 -22 2 -18 -18 -41 -15 -55 7 -10 15 -9 22 1 30 10 9 15 7 20 -5
6 -16 8 -15 22 4 16 23 34 29 34 11z m-24 -100 c4 -8 9 -8 17 0 16 16 37 14
37 -4 0 -23 -39 -39 -66 -26 -24 11 -30 22 -17 34 9 10 21 8 29 -4z"/>
<path d="M6854 4556 c-72 -31 -102 -124 -65 -198 31 -62 64 -83 131 -83 66 1
109 26 134 79 62 130 -66 260 -200 202z"/>
<path d="M7955 4551 c-253 -62 -381 -246 -390 -561 -9 -280 74 -471 301 -691
347 -335 358 -348 408 -460 73 -167 44 -361 -60 -405 -87 -36 -194 -20 -246
37 -37 40 -51 95 -54 219 -1 58 -3 112 -3 121 -1 14 -22 16 -178 15 l-178 -1
-2 -125 c-2 -185 27 -311 99 -423 88 -138 261 -216 479 -215 307 0 498 152
554 441 20 106 13 302 -14 396 -28 95 -72 187 -128 264 -40 55 -201 220 -349
358 -105 99 -162 172 -205 262 -29 62 -50 174 -43 227 10 74 13 89 27 116 45
86 153 119 250 76 76 -34 107 -105 107 -245 0 -51 4 -76 13 -79 10 -4 312 -3
342 1 11 1 11 135 1 216 -11 80 -45 179 -83 242 -59 100 -146 165 -278 209
-74 25 -279 28 -370 5z"/>
<path d="M250 3315 l0 -1225 190 0 c145 0 190 3 191 13 1 6 2 211 2 454 1 243
4 444 7 447 3 3 68 6 143 7 80 0 162 7 195 15 31 8 66 16 76 19 49 11 135 64
183 112 65 66 117 172 137 279 22 118 16 635 -8 719 -57 205 -184 327 -381
368 -52 11 -156 15 -402 16 l-333 1 0 -1225z m661 863 c8 -1 30 -21 47 -43 43
-56 50 -111 48 -388 -2 -250 -9 -291 -54 -340 -35 -37 -78 -47 -208 -47 l-111
0 0 416 1 416 130 -6 c72 -3 138 -6 147 -8z"/>
<path d="M3117 4407 c1 -73 2 -151 2 -174 l1 -43 200 0 200 0 0 -317 c0 -175
1 -648 0 -1050 l0 -733 189 0 c142 0 190 3 193 13 2 6 3 479 3 1050 l-1 1037
201 0 200 0 1 174 1 175 -596 0 -596 0 2 -132z"/>
<path d="M2297 4164 c-1 -1 -24 -4 -52 -7 -270 -27 -525 -208 -653 -462 -54
-107 -85 -235 -86 -355 -1 -89 0 -95 19 -93 19 1 58 7 140 20 22 4 49 8 60 9
11 2 36 5 55 8 19 3 58 8 85 11 28 4 57 8 65 10 20 6 63 12 129 20 30 4 63 9
75 11 11 2 38 6 61 9 22 4 51 8 65 10 14 3 90 14 170 25 80 11 156 23 170 25
60 10 219 34 260 40 25 3 56 8 70 10 14 3 45 7 70 10 25 3 72 10 105 15 33 6
63 10 67 10 4 0 3 15 -3 33 -5 17 -15 48 -20 67 -16 51 -63 150 -71 150 -5 0
-8 6 -8 13 0 25 -124 168 -201 232 -61 50 -204 126 -264 140 -5 2 -28 7 -50
13 -65 18 -247 36 -258 26z m621 -460 c43 -49 17 -120 -49 -130 -89 -15 -129
115 -46 151 39 17 65 11 95 -21z m-374 -46 c45 -41 36 -110 -17 -131 -39 -17
-79 -6 -101 28 -23 35 -20 69 10 99 33 32 74 34 108 4z m-357 -60 c45 -42 15
-125 -49 -135 -83 -13 -123 105 -51 149 34 21 68 16 100 -14z m-367 -53 c19
-20 23 -42 18 -97 -1 -9 -5 -15 -9 -13 -3 3 -12 -2 -19 -10 -17 -21 -83 -19
-103 3 -40 44 -29 109 23 134 38 18 61 14 90 -17z"/>
<path d="M4649 4136 c-163 -43 -311 -222 -387 -467 -32 -102 -34 -134 -14
-159 l18 -22 30 29 c16 15 41 46 54 68 73 121 227 203 368 196 26 -1 25 15 7
-201 -2 -25 -7 -81 -10 -125 -4 -44 -8 -102 -11 -130 -2 -27 -7 -84 -9 -125
-3 -41 -8 -102 -11 -135 -2 -33 -7 -89 -9 -125 -6 -73 -20 -149 -42 -230 -17
-64 -95 -227 -120 -256 -102 -112 -135 -186 -127 -288 8 -112 64 -174 165
-183 49 -4 83 8 124 44 20 18 70 83 70 93 1 3 8 19 18 37 43 81 107 356 122
528 4 52 11 115 30 300 3 22 7 65 10 95 13 134 23 229 30 288 3 23 7 70 10
105 3 34 7 78 10 97 2 19 7 66 11 104 3 38 8 76 9 85 2 9 4 18 4 21 1 3 77 5
171 5 156 0 173 -2 172 -25 -3 -51 -15 -204 -17 -230 -2 -19 -7 -75 -10 -125
-3 -49 -8 -112 -10 -140 -3 -27 -7 -86 -11 -130 -6 -85 -8 -107 -20 -250 -13
-148 -8 -356 11 -445 3 -14 8 -40 11 -59 3 -19 10 -46 16 -60 5 -14 12 -35 14
-46 16 -79 114 -214 183 -249 105 -55 225 -20 309 89 91 119 183 391 176 524
-3 62 -36 82 -55 34 -60 -149 -126 -239 -196 -269 -46 -20 -63 -18 -110 13
-42 27 -85 97 -97 158 -4 17 -9 41 -12 55 -3 14 -6 75 -7 135 -1 96 2 157 18
340 6 71 15 188 20 270 3 44 8 100 10 125 2 25 7 88 11 140 3 52 7 106 8 120
l3 25 194 0 194 0 1 170 c0 94 -1 175 -3 180 -5 16 -1265 17 -1324 1z"/>
<path d="M6642 4138 c-7 -7 -12 -9 -12 -4 0 13 -82 -36 -138 -82 -102 -85
-134 -194 -91 -308 21 -56 90 -136 153 -178 33 -22 36 -27 20 -32 -148 -52
-224 -93 -281 -150 -30 -30 -58 -102 -61 -160 -8 -117 61 -215 221 -318 49
-32 100 -62 113 -68 13 -6 24 -15 24 -19 0 -4 -28 -22 -62 -39 -157 -79 -227
-167 -233 -289 -4 -69 21 -153 64 -215 18 -26 31 -48 29 -49 -91 -47 -128 -76
-162 -125 -31 -46 -37 -69 -24 -94 15 -31 60 -22 88 17 25 35 100 90 152 113
29 12 31 10 213 -144 47 -39 58 -41 85 -14 17 17 19 24 9 43 -13 25 -84 95
-131 128 -32 23 -28 33 23 43 13 3 35 8 49 11 14 3 36 8 50 11 14 3 57 21 96
39 192 92 262 312 143 450 -25 28 -96 81 -140 104 l-27 13 83 82 c122 120 167
212 158 324 -7 102 -67 191 -181 267 l-62 42 52 44 c128 106 194 238 189 374
-3 100 -34 145 -84 126 -30 -12 -39 -34 -27 -67 6 -14 10 -26 10 -28 0 -2
-159 -1 -322 3 -21 1 -38 5 -38 10 0 11 56 41 75 41 7 0 22 9 35 20 17 15 21
25 15 47 -10 42 -47 57 -73 31z m133 -194 c72 -4 140 -6 153 -6 16 1 22 -4 22
-18 0 -11 -3 -20 -7 -21 -5 0 -91 -2 -193 -5 -102 -2 -202 -6 -222 -7 -43 -4
-46 3 -17 44 19 28 24 29 77 24 31 -2 116 -7 187 -11z m165 -84 c0 -5 -8 -25
-17 -44 -14 -31 -20 -35 -42 -29 -14 4 -39 7 -56 6 -102 -5 -327 -4 -332 1 -7
7 -13 58 -8 66 6 10 455 10 455 0z m-60 -120 c-33 -47 -12 -44 -278 -36 -48 2
-65 7 -77 22 -8 10 -15 22 -15 27 0 4 69 6 153 4 83 -1 166 0 182 4 55 12 58
11 35 -21z m-180 -65 c58 -3 106 -7 108 -9 1 -2 -22 -20 -52 -40 l-55 -37 -65
43 c-36 23 -62 46 -60 50 3 5 9 6 13 4 4 -3 54 -8 111 -11z m51 -222 c27 -14
49 -29 49 -33 0 -4 -54 -6 -120 -6 -66 1 -120 3 -120 6 0 4 107 49 139 59 2 0
25 -11 52 -26z m66 -76 c34 -1 59 -8 70 -19 9 -10 15 -20 12 -22 -6 -6 -46
-13 -124 -20 -33 -4 -91 -11 -130 -16 -38 -5 -92 -12 -120 -15 -27 -3 -70 -8
-95 -11 -96 -13 -91 -14 -75 15 14 28 45 58 84 82 23 15 157 17 378 6z m120
-95 c7 -9 13 -29 13 -44 0 -25 -3 -28 -37 -29 -21 -1 -56 -3 -78 -5 -22 -3
-145 -7 -272 -10 l-233 -7 0 27 c0 32 3 33 110 40 47 3 103 8 125 11 22 3 60
8 85 10 113 9 185 16 187 18 1 1 21 3 44 4 30 1 47 -3 56 -15z m7 -136 c-9
-45 -9 -45 -72 -44 -31 1 -102 -2 -157 -5 -55 -4 -152 -9 -215 -12 -112 -5
-115 -5 -132 19 -9 13 -20 36 -24 51 -6 25 -5 27 15 20 45 -14 533 -6 548 9 2
2 13 1 24 -1 17 -5 19 -11 13 -37z m-40 -78 c-4 -7 -17 -25 -27 -40 l-20 -27
-186 3 c-160 2 -190 4 -213 20 -34 22 -36 36 -5 35 42 -2 442 13 446 17 9 8
12 3 5 -8z m-154 -91 c36 -2 65 -7 65 -12 0 -6 -25 -27 -56 -48 l-57 -39 -86
47 c-47 26 -86 50 -86 55 0 4 35 6 78 4 42 -3 106 -6 142 -7z m9 -239 c46 -25
51 -34 19 -35 -13 0 -58 -3 -100 -7 -43 -4 -78 -3 -78 2 0 7 95 60 112 61 3 1
25 -9 47 -21z m118 -71 c7 -4 17 -16 23 -26 8 -17 5 -19 -28 -19 -20 0 -57 -3
-82 -6 -25 -4 -63 -9 -85 -12 -22 -3 -87 -7 -145 -10 -58 -2 -110 -6 -117 -9
-7 -2 -10 1 -7 8 9 19 63 59 98 71 37 13 325 15 343 3z m57 -83 c17 -43 6 -59
-37 -54 -9 1 -52 -4 -95 -10 -42 -6 -90 -13 -107 -15 -101 -13 -152 -19 -253
-30 l-52 -6 5 32 c11 62 17 66 102 68 193 4 403 18 412 27 9 8 19 4 25 -12z
m-14 -123 c-25 -50 -33 -55 -100 -57 -30 -1 -91 -5 -135 -8 -44 -4 -123 -9
-177 -11 l-96 -5 -10 30 c-15 42 -20 40 153 55 33 3 78 7 100 10 22 2 67 7
100 11 33 3 62 8 64 10 2 2 31 4 63 4 l58 0 -20 -39z m-95 -100 c-18 -17 -117
-52 -223 -77 -115 -28 -110 -30 -155 36 -25 35 -22 39 31 42 137 9 356 8 347
-1z"/>
<path d="M3109 3386 c-4 -5 -96 -18 -131 -20 -10 0 -18 -4 -18 -9 0 -4 -4 -6
-9 -2 -5 3 -54 -2 -108 -11 -54 -9 -109 -17 -123 -19 -14 -1 -45 -5 -70 -9
-25 -4 -56 -9 -70 -11 -14 -2 -43 -6 -65 -10 -22 -3 -55 -7 -73 -10 -18 -2
-45 -6 -60 -9 -15 -3 -45 -8 -67 -11 -22 -3 -47 -7 -55 -10 -8 -2 -39 -6 -67
-9 -29 -3 -110 -15 -180 -25 -71 -11 -150 -23 -178 -27 -27 -3 -53 -8 -58 -11
-4 -2 -26 -6 -50 -8 -23 -2 -79 -9 -125 -15 -77 -12 -82 -14 -77 -34 31 -115
38 -132 100 -241 43 -77 213 -257 254 -270 14 -4 34 -16 45 -27 11 -10 32 -21
46 -25 14 -3 50 -14 80 -24 66 -21 74 -16 77 49 1 26 4 65 6 87 3 22 9 68 13
103 4 36 11 59 16 54 5 -5 13 -48 18 -96 6 -49 13 -105 16 -125 4 -20 9 -56
13 -80 8 -55 17 -58 159 -55 108 3 219 27 303 65 44 20 47 24 42 53 -8 56 -54
311 -59 329 -3 9 -2 17 3 17 7 0 76 -154 133 -297 7 -18 14 -33 17 -33 25 0
209 178 233 226 8 16 18 31 21 34 9 7 74 138 87 175 33 91 52 233 43 333 -1
11 -72 18 -82 8z"/>
<path d="M2970 2420 c-1 -3 -11 -34 -23 -70 l-22 -65 105 -155 c57 -85 112
-164 122 -174 10 -11 18 -26 18 -33 0 -7 3 -13 8 -13 4 0 23 -24 42 -53 19
-28 37 -54 40 -57 3 -3 34 -48 69 -100 75 -113 99 -140 122 -140 22 0 37 20
35 45 0 11 -26 58 -57 105 -30 47 -66 103 -79 125 -33 55 -197 308 -207 320
-5 6 -12 17 -16 25 -12 28 -157 248 -157 240z"/>
<path d="M1828 2245 c-3 -11 -36 -128 -73 -260 -37 -132 -69 -249 -71 -260 -2
-11 -8 -31 -13 -45 -8 -20 -62 -221 -76 -280 -4 -16 -25 -74 -28 -76 -1 0 4
-8 12 -17 16 -20 56 -22 67 -5 5 8 182 532 204 603 5 17 8 26 40 128 l32 98
-40 52 c-22 28 -41 59 -44 67 -3 11 -6 9 -10 -5z"/>
<path d="M2740 2160 c-18 -16 -43 -36 -54 -43 l-21 -14 22 -44 c42 -89 93
-200 93 -205 0 -8 58 -141 92 -209 16 -33 29 -60 28 -60 -3 0 14 -44 37 -95
14 -30 31 -71 38 -91 7 -19 27 -63 44 -97 17 -34 29 -62 26 -62 -4 0 1 -12 9
-27 9 -16 31 -63 50 -105 31 -68 38 -78 61 -78 28 0 48 34 34 60 -4 8 -18 44
-30 80 -12 36 -27 76 -32 90 -6 14 -11 30 -13 35 -5 15 -94 247 -104 270 -11
25 -54 137 -73 190 -34 96 -147 387 -160 410 l-13 26 -34 -31z"/>
<path d="M2079 2052 c-1 -20 -3 -50 -4 -67 -3 -37 -16 -230 -20 -305 -1 -30
-5 -84 -9 -120 -3 -36 -8 -105 -11 -155 -3 -49 -7 -117 -10 -150 -2 -33 -7
-103 -10 -155 -3 -52 -8 -114 -11 -137 -6 -57 4 -91 28 -99 37 -11 50 17 64
138 7 62 15 133 18 158 3 25 8 65 11 90 13 122 17 154 20 169 1 9 6 48 9 86 4
39 9 86 11 105 3 19 14 116 25 215 11 99 22 190 24 203 3 12 0 23 -7 23 -43 5
-56 8 -89 22 l-38 16 -1 -37z"/>
</g>
</svg>
